MoBL_ARMS_module1_nomuscles_states
version=1
nRows=11
nColumns=41
inDegrees=yes

# SIMM Motion File Header:
name MoBL_ARMS_module1_nomuscles_states
datacolumns 41
datarows 11
otherdata 1
range 0.44769417 0.60032688
endheader
time	sternoclavicular_r2	sternoclavicular_r3	unrotscap_r3	unrotscap_r2	acromioclavicular_r2	acromioclavicular_r3	acromioclavicular_r1	unrothum_r1	unrothum_r3	unrothum_r2	elv_angle	shoulder_elv	shoulder1_r2	shoulder_rot	elbow_flexion	pro_sup	deviation	flexion	wrist_hand_r1	wrist_hand_r3	sternoclavicular_r2_u	sternoclavicular_r3_u	unrotscap_r3_u	unrotscap_r2_u	acromioclavicular_r2_u	acromioclavicular_r3_u	acromioclavicular_r1_u	unrothum_r1_u	unrothum_r3_u	unrothum_r2_u	elv_angle_u	shoulder_elv_u	shoulder1_r2_u	shoulder_rot_u	elbow_flexion_u	pro_sup_u	deviation_u	flexion_u	wrist_hand_r1_u	wrist_hand_r3_u
      0.44769417	     -0.00000000	     -0.00000000	      0.00000000	      0.00000000	     -0.00000000	     -0.00000000	      0.00000000	     -0.00000000	      0.00000000	      0.00000000	     -0.00000000	     -0.00000000	      0.00000000	     -0.00000000	     -0.00000115	     33.11007954	      0.00000000	     -1.45175169	     -0.00000000	     -0.72587585	     -0.00000000	     -0.00000000	      0.00000000	      0.00000000	     -0.00000000	      0.00000000	      0.00000000	     -0.00000000	     -0.00000000	      0.00000000	     -0.00000000	      0.00000000	     -0.00000000	     -0.00000000	      0.00000000	      7.61691525	      0.00000000	     10.90749604	     -0.00000000	      5.45374802
      0.46330216	     -0.00000000	     -0.00000000	      0.00000000	      0.00000000	     -0.00000000	     -0.00000000	      0.00000000	     -0.00000000	      0.00000000	      0.00000000	     -0.00000000	     -0.00000000	      0.00000000	     -0.00000000	     -0.00000115	     33.22914463	      0.00000000	     -1.28795086	     -0.00000000	     -0.64397543	     -0.00000000	     -0.00000000	      0.00000000	      0.00000000	     -0.00000000	      0.00000000	      0.00000000	     -0.00000000	     -0.00000000	     -0.00000000	     -0.00000000	      0.00000000	     -0.00000000	     -0.00000000	      0.00000000	      7.63928316	      0.00000000	     10.04610511	     -0.00000000	      5.02305255
      0.47891014	     -0.00000000	     -0.00000000	      0.00000000	      0.00000000	     -0.00000000	     -0.00000000	      0.00000000	     -0.00000000	      0.00000000	      0.00000000	     -0.00000000	     -0.00000000	      0.00000000	     -0.00000000	     -0.00000115	     33.34838153	      0.00000000	     -1.13900680	     -0.00000000	     -0.56950340	     -0.00000000	     -0.00000000	      0.00000000	      0.00000000	      0.00000000	      0.00000000	      0.00000000	     -0.00000000	     -0.00000000	     -0.00000000	     -0.00000000	      0.00000000	     -0.00000000	     -0.00000000	      0.00000000	      7.63389711	      0.00000000	      9.01888342	     -0.00000000	      4.50944171
      0.49451812	     -0.00000000	     -0.00000000	      0.00000000	      0.00000000	     -0.00000000	      0.00000000	      0.00000000	     -0.00000000	      0.00000000	      0.00000000	     -0.00000000	     -0.00000000	     -0.00000000	     -0.00000000	     -0.00000115	     33.46744457	      0.00000000	     -1.00692268	     -0.00000000	     -0.50346134	     -0.00000000	     -0.00000000	      0.00000000	      0.00000000	     -0.00000000	      0.00000000	      0.00000000	     -0.00000000	     -0.00000000	     -0.00000000	     -0.00000000	      0.00000000	     -0.00000000	     -0.00000000	      0.00000000	      7.62399786	      0.00000000	      7.89524026	     -0.00000000	      3.94762013
      0.50856442	     -0.00000000	     -0.00000000	      0.00000000	      0.00000000	     -0.00000000	      0.00000000	      0.00000000	     -0.00000000	      0.00000000	      0.00000000	     -0.00000000	     -0.00000000	     -0.00000000	     -0.00000000	     -0.00000115	     33.57435436	      0.00000000	     -0.90330988	     -0.00000000	     -0.45165494	     -0.00000000	     -0.00000000	      0.00000000	      0.00000000	     -0.00000000	      0.00000000	      0.00000000	     -0.00000000	     -0.00000000	     -0.00000000	     -0.00000000	      0.00000000	     -0.00000000	     -0.00000000	     -0.00000000	      7.59566657	      0.00000000	      6.85695331	     -0.00000000	      3.42847665
      0.52261071	     -0.00000000	     -0.00000000	      0.00000000	      0.00000000	     -0.00000000	      0.00000000	      0.00000000	     -0.00000000	      0.00000000	      0.00000000	     -0.00000000	     -0.00000000	     -0.00000000	     -0.00000000	     -0.00000115	     33.68084721	      0.00000000	     -0.81426401	     -0.00000000	     -0.40713200	     -0.00000000	     -0.00000000	      0.00000000	      0.00000000	     -0.00000000	      0.00000000	      0.00000000	     -0.00000000	     -0.00000000	     -0.00000000	     -0.00000000	      0.00000000	     -0.00000000	     -0.00000000	      0.00000000	      7.56725062	      0.00000000	      5.82575119	     -0.00000000	      2.91287560
      0.53665701	     -0.00000000	     -0.00000000	      0.00000000	      0.00000000	     -0.00000000	      0.00000000	      0.00000000	     -0.00000000	     -0.00000000	      0.00000000	     -0.00000000	     -0.00000000	     -0.00000000	     -0.00000000	     -0.00000115	     33.78688454	      0.00000000	     -0.73946845	     -0.00000000	     -0.36973423	     -0.00000000	     -0.00000000	      0.00000000	      0.00000000	     -0.00000000	      0.00000000	      0.00000000	     -0.00000000	     -0.00000000	     -0.00000000	     -0.00000000	      0.00000000	     -0.00000000	     -0.00000000	      0.00000000	      7.52989417	      0.00000000	      4.83225865	     -0.00000000	      2.41612933
      0.55631057	     -0.00000000	     -0.00000000	      0.00000000	      0.00000000	     -0.00000000	      0.00000000	      0.00000000	     -0.00000000	     -0.00000000	      0.00000000	     -0.00000000	     -0.00000000	     -0.00000000	     -0.00000000	     -0.00000115	     33.93433085	      0.00000000	     -0.65739719	     -0.00000000	     -0.32869860	     -0.00000000	     -0.00000000	      0.00000000	      0.00000000	     -0.00000000	      0.00000000	      0.00000000	     -0.00000000	     -0.00000000	     -0.00000000	     -0.00000000	      0.00000000	     -0.00000000	     -0.00000000	     -0.00000000	      7.47654085	      0.00000000	      3.54121983	     -0.00000000	      1.77060991
      0.57098267	     -0.00000000	     -0.00000000	      0.00000000	      0.00000000	     -0.00000000	      0.00000000	      0.00000000	     -0.00000000	     -0.00000000	      0.00000000	     -0.00000000	     -0.00000000	     -0.00000000	     -0.00000000	     -0.00000115	     34.04369257	      0.00000000	     -0.61190521	     -0.00000000	     -0.30595260	     -0.00000000	     -0.00000000	      0.00000000	      0.00000000	     -0.00000000	      0.00000000	      0.00000000	     -0.00000000	     -0.00000000	     -0.00000000	     -0.00000000	      0.00000000	     -0.00000000	      0.00000000	      0.00000000	      7.42929345	      0.00000000	      2.67518239	     -0.00000000	      1.33759120
      0.58565478	     -0.00000000	     -0.00000000	      0.00000000	      0.00000000	     -0.00000000	      0.00000000	      0.00000000	     -0.00000000	     -0.00000000	      0.00000000	     -0.00000000	     -0.00000000	     -0.00000000	     -0.00000000	     -0.00000115	     34.15238188	      0.00000000	     -0.57845367	     -0.00000000	     -0.28922684	     -0.00000000	     -0.00000000	      0.00000000	      0.00000000	     -0.00000000	      0.00000000	      0.00000000	     -0.00000000	     -0.00000000	     -0.00000000	     -0.00000000	      0.00000000	     -0.00000000	     -0.00000000	      0.00000000	      7.38751318	      0.00000000	      1.90034800	     -0.00000000	      0.95017400
      0.60032688	     -0.00000000	     -0.00000000	      0.00000000	      0.00000000	     -0.00000000	      0.00000000	      0.00000000	     -0.00000000	     -0.00000000	      0.00000000	     -0.00000000	     -0.00000000	     -0.00000000	     -0.00000000	     -0.00000115	     34.26044410	      0.00000000	     -0.55565842	     -0.00000000	     -0.27782921	     -0.00000000	     -0.00000000	      0.00000000	      0.00000000	     -0.00000000	     -0.00000000	      0.00000000	     -0.00000000	      0.00000000	     -0.00000000	     -0.00000000	      0.00000000	     -0.00000000	     -0.00000000	      0.00000000	      7.34226388	      0.00000000	      1.22335951	     -0.00000000	      0.61167976
